<svg xmlns="http://www.w3.org/2000/svg" xmlns:xlink="http://www.w3.org/1999/xlink" width="32.595" height="34.943" viewBox="0 0 32.595 34.943">
  <defs>
    <linearGradient id="linear-gradient" x1="0.463" y1="0.038" x2="0.5" y2="1" gradientUnits="objectBoundingBox">
      <stop offset="0" stop-color="#ba76f5"/>
      <stop offset="1" stop-color="#30d3fe"/>
    </linearGradient>
  </defs>
  <g id="thunder-903" transform="translate(-69.249 2.781) rotate(1)">
    <path id="Path_1590" data-name="Path 1590" d="M10.089,34.391a.567.567,0,0,1-.353-1.011L23.321,22.568,9.071,14.256a.567.567,0,0,1,.037-1L36.129.058a.567.567,0,0,1,.646.914L24.83,12.713,40.507,21.8a.567.567,0,0,1-.081,1.019L10.291,34.353A.56.56,0,0,1,10.089,34.391Z" transform="translate(61 -4)" fill="url(#linear-gradient)"/>
  </g>
</svg>
