<svg xmlns="http://www.w3.org/2000/svg" width="25.429" height="36.189"><g data-name="Group 2412" fill="#fff"><path data-name="Path 79" d="M22.465 18.425a1.713 1.713 0 0 1-1.713-1.711V6.725a3.628 3.628 0 0 0-3.875-3.3H8.551a3.63 3.63 0 0 0-3.879 3.3v9.989a1.711 1.711 0 0 1-3.422 0V6.725C1.25 3.016 4.524 0 8.55 0h8.326c4.025 0 7.3 3.016 7.3 6.725v9.989a1.712 1.712 0 0 1-1.711 1.711Z"/><path data-name="Path 80" d="m2.132 19.577 6.424-.131 2.1-5.993a2.18 2.18 0 0 1 4.11 0l2.1 5.991 6.426.131a2.177 2.177 0 0 1 1.26 3.919l-5.1 3.827 1.854 6.056a2.169 2.169 0 0 1-1.4 2.7 1.372 1.372 0 0 1-.266.064 1.474 1.474 0 0 1-.173.029l-.243.017a1.871 1.871 0 0 1-.353-.033 1.809 1.809 0 0 1-.3-.064 2.182 2.182 0 0 1-.584-.287l-5.278-3.634-5.278 3.634a2.176 2.176 0 0 1-3.318-2.428l1.852-6.054-5.1-3.829a2.178 2.178 0 0 1 1.266-3.917Zm7.214 6.515.121.089-1.773 5.794 5.02-3.457 5.02 3.457-1.771-5.794 4.86-3.646-5.95-.121h-.148l-2.012-5.727-1.96 5.588-.05.139-6.1.123Z"/></g></svg>