<svg xmlns="http://www.w3.org/2000/svg" viewBox="0 0 187.147 51.817"><defs><linearGradient id="a" x1=".463" x2=".5" y1=".038" y2="1" gradientUnits="objectBoundingBox"><stop offset="0" stop-color="#ba76f5"/><stop offset="1" stop-color="#30d3fe"/></linearGradient></defs><g data-name="Group 2339"><path fill="url(#a)" d="M10.716 51a.841.841 0 0 1-.524-1.5l20.146-16.035L9.207 21.14a.84.84 0 0 1 .055-1.481L49.33.086a.841.841 0 0 1 .958 1.355L32.576 18.852l23.247 13.471a.84.84 0 0 1-.121 1.512L11.016 50.941a.831.831 0 0 1-.3.059Z" data-name="Path 1590" transform="rotate(1 4.863 -452.558)"/><path fill="#fff" d="M181.342 50.647v-8.578h-11.367v8.578h-20.369a6.706 6.706 0 0 1-1.334-.144 7.009 7.009 0 0 1-1.407-.454 6.622 6.622 0 0 1-1.338-.8 5.639 5.639 0 0 1-1.166-1.227 6.026 6.026 0 0 1-.8-1.648 6.841 6.841 0 0 1-.3-2.067v-6.363a7.357 7.357 0 0 1-.112.4 7.53 7.53 0 0 1-1.006 2.083 7.138 7.138 0 0 1-1.472 1.555 8.637 8.637 0 0 1-1.7 1.034 8.653 8.653 0 0 1-1.192.442l8.33 7.194h-8.945l-7.934-6.865h-2.887v6.865h-5.806V30.578a2.918 2.918 0 0 1 .223-1.131 2.942 2.942 0 0 1 .608-.927 2.805 2.805 0 0 1 .94-.636 2.962 2.962 0 0 1 1.146-.224h14.449a5.574 5.574 0 0 1 2.616.577 5.381 5.381 0 0 1 1.748 1.422 5.5 5.5 0 0 1 .963 1.833 6.85 6.85 0 0 1 .219.966 6.934 6.934 0 0 1 .407-1.194 6.446 6.446 0 0 1 .814-1.346 5.81 5.81 0 0 1 1.229-1.159 6 6 0 0 1 1.639-.8 6.744 6.744 0 0 1 2.062-.3h20.369v8.579h11.367v-8.579h5.806v22.993Zm-32.17-17.084a.73.73 0 0 0-.1.465v10.276a.655.655 0 0 0 .11.427.658.658 0 0 0 .427.109h14.563V33.461h-14.563a.679.679 0 0 0-.438.102Zm-22.825 4.413h9.088a3.45 3.45 0 0 0 .976-.227 2.245 2.245 0 0 0 .713-.451 1.783 1.783 0 0 0 .427-.639 2.524 2.524 0 0 0 .161-.949v-2.25h-11.366Zm-12.234 12.671v-5.152h-11.382v5.152H82.713a7.149 7.149 0 0 1-2.013-.319 6.08 6.08 0 0 1-2.073-1.093 6.127 6.127 0 0 1-1.594-1.971 5.163 5.163 0 0 1-.406-1.036 6.91 6.91 0 0 1-.731 1.42 6.074 6.074 0 0 1-1.316 1.4 7.8 7.8 0 0 1-1.5.907 7.513 7.513 0 0 1-1.578.523 7.432 7.432 0 0 1-1.515.167H54.303v-5.806h15.684a1.207 1.207 0 0 0 .977-.329 1.454 1.454 0 0 0 .335-1.042 1.831 1.831 0 0 0-.1-.621 1.22 1.22 0 0 0-.255-.424 1.027 1.027 0 0 0-.377-.253 1.536 1.536 0 0 0-.581-.1h-8.755a7.816 7.816 0 0 1-2.285-.374 7.019 7.019 0 0 1-2.314-1.236 6.836 6.836 0 0 1-1.789-2.243 7.327 7.327 0 0 1-.717-3.355 7.274 7.274 0 0 1 .718-3.35 6.924 6.924 0 0 1 1.784-2.237 6.94 6.94 0 0 1 2.317-1.247 7.816 7.816 0 0 1 2.285-.374h13.956v5.807H61.231a1.172 1.172 0 0 0-.955.336 1.5 1.5 0 0 0-.343 1.063 1.449 1.449 0 0 0 .332 1.045 1.2 1.2 0 0 0 .967.327h8.808a7.7 7.7 0 0 1 1.5.191 7.534 7.534 0 0 1 1.578.547 7.666 7.666 0 0 1 1.492.935 6.51 6.51 0 0 1 1.289 1.392 6.161 6.161 0 0 1 .486.833v-9.561a2.918 2.918 0 0 1 .223-1.131 2.942 2.942 0 0 1 .608-.927 2.8 2.8 0 0 1 .941-.636 2.952 2.952 0 0 1 1.145-.224h18.143v5.807H82.191v2.771h13.54v5.836h-13.54V44.3a.675.675 0 0 0 .1.435.717.717 0 0 0 .449.1h14.183v-5.689a12.1 12.1 0 0 1 .865-4.609 10.89 10.89 0 0 1 2.418-3.655 11.01 11.01 0 0 1 3.651-2.383 12.1 12.1 0 0 1 4.563-.85h8.579a2.925 2.925 0 0 1 1.131.224 2.88 2.88 0 0 1 .936.626 2.856 2.856 0 0 1 .626.938 2.919 2.919 0 0 1 .224 1.131v20.074Zm-6.34-17.139a6.454 6.454 0 0 0-1.127.224 7.186 7.186 0 0 0-1.366.553 4.56 4.56 0 0 0-1.233.961 5.043 5.043 0 0 0-.941 1.56 6.409 6.409 0 0 0-.375 2.346v.537h11.381v-6.228h-5.69c-.03 0-.168.004-.649.047Zm51.737-8.932-7.934-6.866h-2.887v6.866h-20.414a7.11 7.11 0 0 1-2.012-.32 6.083 6.083 0 0 1-2.075-1.092 6.142 6.142 0 0 1-1.594-1.971 6.317 6.317 0 0 1-.649-2.96v-3.5a7.226 7.226 0 0 1-.737 1.347 7.155 7.155 0 0 1-1.472 1.555 8.4 8.4 0 0 1-1.7 1.03 8.536 8.536 0 0 1-1.792.582 8.7 8.7 0 0 1-1.7.18h-9.13v5.153h-5.807V7.931a6.338 6.338 0 0 1 .648-2.952 6.057 6.057 0 0 1 1.6-1.977 6.263 6.263 0 0 1 2.063-1.086 6.974 6.974 0 0 1 2.013-.332h8.608a8.6 8.6 0 0 1 2.619.377 7.739 7.739 0 0 1 2.076 1.011 7.05 7.05 0 0 1 1.553 1.478 8.819 8.819 0 0 1 1.023 1.692c.047.1.092.207.134.311V4.502a2.929 2.929 0 0 1 .224-1.131 2.946 2.946 0 0 1 .608-.927 2.819 2.819 0 0 1 .94-.636 2.961 2.961 0 0 1 1.146-.223h18.142v2.063c.029-.093.062-.186.1-.277a2.946 2.946 0 0 1 .608-.927 2.813 2.813 0 0 1 .941-.636 2.951 2.951 0 0 1 1.145-.223h14.449a5.586 5.586 0 0 1 2.616.576 5.381 5.381 0 0 1 1.748 1.422 5.506 5.506 0 0 1 .963 1.833 6.256 6.256 0 0 1 .284 1.8v2.429a8.794 8.794 0 0 1-.368 2.628 7.537 7.537 0 0 1-1.006 2.082 7.143 7.143 0 0 1-1.472 1.556 8.645 8.645 0 0 1-1.7 1.033 8.354 8.354 0 0 1-1.192.442l8.33 7.2Zm-31.757-6.343a.68.68 0 0 0 .1.434.716.716 0 0 0 .449.1h14.579V7.386h-15.13v2.772h13.541v5.835h-13.541Zm-22.24-10.741a.681.681 0 0 0-.1.435v5.69h9.088a3.424 3.424 0 0 0 .99-.227 2.166 2.166 0 0 0 .7-.444 1.834 1.834 0 0 0 .427-.646 2.5 2.5 0 0 0 .161-.934V9.692a4.018 4.018 0 0 0-.239-1.007 2.13 2.13 0 0 0-.431-.7 1.868 1.868 0 0 0-.637-.433 2.4 2.4 0 0 0-.928-.162h-8.579a.72.72 0 0 0-.452.103Zm43.175 4.412h9.088a3.4 3.4 0 0 0 .976-.227 2.228 2.228 0 0 0 .713-.451 1.78 1.78 0 0 0 .427-.639 2.522 2.522 0 0 0 .161-.949v-2.25h-11.366ZM87.544 24.576a12.928 12.928 0 0 1-2.667-.285 12.022 12.022 0 0 1-2.627-.886 11.412 11.412 0 0 1-2.4-1.533 10.158 10.158 0 0 1-1.989-2.232 9.936 9.936 0 0 1-.786-1.439 7.2 7.2 0 0 1-.3 1.528 7.052 7.052 0 0 1-.88 1.848 6.078 6.078 0 0 1-1.316 1.4 7.765 7.765 0 0 1-1.5.907 7.623 7.623 0 0 1-1.578.522 7.368 7.368 0 0 1-1.515.168H54.302v-5.806h15.684a1.2 1.2 0 0 0 .977-.331 1.451 1.451 0 0 0 .335-1.042 1.819 1.819 0 0 0-.1-.621 1.22 1.22 0 0 0-.255-.424 1.041 1.041 0 0 0-.377-.254 1.536 1.536 0 0 0-.581-.1h-8.754a7.784 7.784 0 0 1-2.285-.374 6.983 6.983 0 0 1-2.314-1.236 6.808 6.808 0 0 1-1.789-2.243 7.319 7.319 0 0 1-.717-3.354 7.273 7.273 0 0 1 .718-3.35 6.908 6.908 0 0 1 1.784-2.237 6.922 6.922 0 0 1 2.317-1.247 7.816 7.816 0 0 1 2.286-.371h13.956V7.39H61.231a1.171 1.171 0 0 0-.955.337 1.5 1.5 0 0 0-.343 1.063 1.449 1.449 0 0 0 .332 1.045 1.208 1.208 0 0 0 .967.327h8.808a7.746 7.746 0 0 1 1.5.193 7.534 7.534 0 0 1 1.578.547 7.615 7.615 0 0 1 1.492.934 6.53 6.53 0 0 1 1.289 1.392c.053.076.1.154.153.232V1.584h5.807v11.5a6.4 6.4 0 0 0 .374 2.35 5.047 5.047 0 0 0 .942 1.554 4.486 4.486 0 0 0 1.233.961 7.166 7.166 0 0 0 1.366.555 6.619 6.619 0 0 0 1.127.224c.481.043.618.047.648.047h5.69V1.584h5.807v20.075a2.956 2.956 0 0 1-.224 1.146 2.792 2.792 0 0 1-.635.939 2.946 2.946 0 0 1-.928.61 2.924 2.924 0 0 1-1.131.223Z" data-name="Union 1"/></g></svg>