<?xml version="1.0" encoding="utf-8"?>
<!-- Generator: Adobe Illustrator 27.5.0, SVG Export Plug-In . SVG Version: 6.00 Build 0)  -->
<svg version="1.1" id="Laag_1" xmlns="http://www.w3.org/2000/svg" xmlns:xlink="http://www.w3.org/1999/xlink" x="0px" y="0px"
	 viewBox="0 0 16.6 17.8" style="enable-background:new 0 0 16.6 17.8;" xml:space="preserve">
<style type="text/css">
	.st0{fill:#140542;}
</style>
<path class="st0" d="M0.7,17.5c-0.2,0-0.3-0.1-0.3-0.3c0-0.1,0-0.2,0.1-0.2l7-5.4L0.3,7.3C0.2,7.2,0.1,7,0.2,6.9
	c0,0,0.1-0.1,0.1-0.1l13.9-6.5c0.1-0.1,0.3,0,0.4,0.1c0.1,0.1,0,0.2-0.1,0.3L8.4,6.6l7.9,4.8c0.1,0.1,0.2,0.3,0.1,0.4
	c0,0.1-0.1,0.1-0.1,0.1L0.8,17.5C0.7,17.5,0.7,17.5,0.7,17.5z"/>
</svg>
